<svg width="40" height="40" viewBox="0 0 52 44" fill="none" xmlns="http://www.w3.org/2000/svg"><path opacity="0.2" fill-rule="evenodd" clip-rule="evenodd" d="M1.04843 33.0186L19.2015 3.66858C20.5575 1.4764 23.0932 0 26 0V0.000396124L26 0.00012207C28.9068 0.00012207 31.4425 1.47652 32.7985 3.6687L50.9515 33.0187C51.6172 34.095 52 35.3429 52 36.675C52 40.7203 48.4867 44 44.1529 44H26L26 43.9999H7.84711C3.51325 43.9999 0 40.7202 0 36.6749C0 35.3427 0.382789 34.0949 1.04843 33.0186Z" fill="url(#paint0_linear)"></path><path fill-rule="evenodd" clip-rule="evenodd" d="M25.7716 13.7135L25.7752 13.7136C26.9937 13.7153 27.9803 14.5464 27.9803 15.5717V25.6054C27.9803 26.6311 26.9916 27.4636 25.7713 27.4636V27.4635C24.5512 27.4634 23.5627 26.631 23.5627 25.6054V15.5716C23.5627 14.5452 24.5514 13.7135 25.7716 13.7135ZM25.7711 31.5625V31.5626C24.5509 31.5626 23.5623 32.4916 23.5623 33.6381C23.5623 34.7846 24.551 35.7137 25.7712 35.7137L25.7752 35.7136C26.9935 35.7115 27.98 34.7833 27.98 33.638C27.98 32.4916 26.9913 31.5625 25.7711 31.5625Z" fill="#04D361"></path><defs><linearGradient id="paint0_linear" x1="48.3508" y1="36.08" x2="-5.95633" y2="16.6367" gradientUnits="userSpaceOnUse"><stop stop-color="#8257E6"></stop><stop offset="0.996535" stop-color="#04D361"></stop></linearGradient></defs></svg>