<svg width="40" height="40" viewBox="0 0 44 40" fill="none" xmlns="http://www.w3.org/2000/svg"><path opacity="0.2" d="M39.2734 44H4.72656C2.12034 44 0 41.9439 0 39.4167V17.75C0 17.0597 0.577156 16.5 1.28906 16.5H42.7109C43.4228 16.5 44 17.0597 44 17.75V39.4167C44 41.9439 41.8797 44 39.2734 44Z" fill="url(#paint0_linear)"></path><path opacity="0.8" d="M39.2734 4.8125H4.72656C2.12034 4.8125 0 6.91736 0 9.50456V16.5H44V9.50456C44 6.91736 41.8797 4.8125 39.2734 4.8125Z" fill="url(#paint1_linear)"></path><path d="M31.797 0.00012207C30.6578 0.00012207 29.7345 1.10818 29.7345 2.47512V9.90012C29.7345 11.2671 30.6578 12.3751 31.797 12.3751C32.9361 12.3751 33.8595 11.2671 33.8595 9.90012V2.47512C33.8595 1.10818 32.9361 0.00012207 31.797 0.00012207Z" fill="#04D361"></path><path d="M11.1717 12.3751C10.0325 12.3751 9.10916 11.2671 9.10916 9.90012V2.47512C9.10916 1.10818 10.0325 0.00012207 11.1717 0.00012207C12.3108 0.00012207 13.2342 1.10818 13.2342 2.47512V9.90012C13.2342 11.2671 12.3108 12.3751 11.1717 12.3751Z" fill="#04D361"></path><defs><linearGradient id="paint0_linear" x1="40.9123" y1="39.05" x2="-1.06736" y2="18.7021" gradientUnits="userSpaceOnUse"><stop stop-color="#8257E6"></stop><stop offset="0.996535" stop-color="#04D361"></stop></linearGradient><linearGradient id="paint1_linear" x1="40.9123" y1="14.3963" x2="18.3792" y2="-11.3026" gradientUnits="userSpaceOnUse"><stop stop-color="#8257E6"></stop><stop offset="0.996535" stop-color="#04D361"></stop></linearGradient></defs></svg>